<svg width="16" height="17" viewBox="0 0 16 17" fill="none" xmlns="http://www.w3.org/2000/svg">
<path d="M7.38264 2.25537C7.59597 1.69271 8.40331 1.69271 8.61731 2.25537L9.99731 6.07804C10.094 6.33137 10.34 6.50004 10.6146 6.50004H14.006C14.6326 6.50004 14.906 7.28004 14.4133 7.66204L12 9.83337C11.8919 9.91648 11.8129 10.0317 11.7743 10.1625C11.7357 10.2933 11.7396 10.4329 11.7853 10.5614L12.6666 14.2967C12.8813 14.8967 12.1866 15.412 11.6613 15.0427L8.38331 12.9627C8.27105 12.8838 8.13718 12.8415 7.99997 12.8415C7.86277 12.8415 7.7289 12.8838 7.61664 12.9627L4.33864 15.0427C3.81397 15.412 3.11864 14.896 3.33331 14.2967L4.21464 10.5614C4.26036 10.4329 4.26421 10.2933 4.22565 10.1625C4.18708 10.0317 4.10808 9.91648 3.99997 9.83337L1.58664 7.66204C1.09331 7.28004 1.36797 6.50004 1.99331 6.50004H5.38464C5.51817 6.50049 5.64869 6.46038 5.75892 6.38502C5.86915 6.30967 5.95391 6.20262 6.00197 6.07804L7.38197 2.25537H7.38264Z" stroke="#C4CDD5" stroke-width="0.5" stroke-linecap="round" stroke-linejoin="round"/>
</svg>
