<svg width="16" height="17" viewBox="0 0 16 17" fill="none" xmlns="http://www.w3.org/2000/svg">
<path d="M7.38263 2.25537C7.59596 1.69271 8.40329 1.69271 8.61729 2.25537L9.99729 6.07804C10.094 6.33137 10.34 6.50004 10.6146 6.50004H14.006C14.6326 6.50004 14.906 7.28004 14.4133 7.66204L12 9.83337C11.8919 9.91648 11.8129 10.0317 11.7743 10.1625C11.7357 10.2933 11.7396 10.4329 11.7853 10.5614L12.6666 14.2967C12.8813 14.8967 12.1866 15.412 11.6613 15.0427L8.38329 12.9627C8.27103 12.8838 8.13717 12.8415 7.99996 12.8415C7.86275 12.8415 7.72888 12.8838 7.61663 12.9627L4.33863 15.0427C3.81396 15.412 3.11863 14.896 3.33329 14.2967L4.21463 10.5614C4.26034 10.4329 4.2642 10.2933 4.22563 10.1625C4.18707 10.0317 4.10806 9.91648 3.99996 9.83337L1.58663 7.66204C1.09329 7.28004 1.36796 6.50004 1.99329 6.50004H5.38463C5.51815 6.50049 5.64867 6.46038 5.7589 6.38502C5.86914 6.30967 5.9539 6.20262 6.00196 6.07804L7.38196 2.25537H7.38263Z" fill="#F7AB3A" stroke="#F7AB3A" stroke-width="0.5" stroke-linecap="round" stroke-linejoin="round"/>
</svg>
